<?xml version="1.0" encoding="UTF-8" standalone="no"?>
<!-- Created with Inkscape (http://www.inkscape.org/) -->

<svg
   width="289.99988mm"
   height="60mm"
   viewBox="0 0 289.99988 60"
   version="1.1"
   id="svg5"
   xmlns="http://www.w3.org/2000/svg"
   xmlns:svg="http://www.w3.org/2000/svg">
  <defs
     id="defs2" />
  <g
     id="layer1">
    <g
       id="g1802"
       transform="matrix(0.46875,0,0,0.46875,76.088967,101.13709)">
      <g
         id="g2096"
         transform="translate(-162.32313,-215.75913)">
        <path
           style="fill:#d0d0d0;fill-opacity:1;stroke-width:1.33333"
           d="m 31.999999,122.66667 v -5.33334 H 26.666666 21.333333 V 112 106.66667 H 16 10.666666 V 101.33333 96 H 5.3333332 0 V 80 64 H 5.3333332 10.666666 V 58.666667 53.333333 H 16 21.333333 V 48 42.666667 h 5.333333 5.333333 V 37.333333 32 h 5.333333 5.333333 v -5.333333 -5.333334 h 5.333334 5.333333 V 16 10.666667 h 5.333333 5.333333 V 5.3333333 0 h 10.666667 10.666666 v 5.3333333 5.3333337 h 5.333333 5.333333 V 21.333333 32 h 5.333333 5.33333 V 42.666667 53.333333 H 112 117.33333 V 74.666667 96 H 112 106.66666 v 5.33333 5.33334 h -5.33333 -5.333333 V 112 117.33333 H 90.666664 85.333331 V 122.66667 128 H 58.666665 31.999999 Z"
           id="path2112" />
        <path
           style="fill:#b9b9b9;fill-opacity:1;stroke-width:1.33333"
           d="m 31.999999,122.66667 v -5.33334 H 26.666666 21.333333 V 112 106.66667 H 16 10.666666 V 101.33333 96 H 5.3333332 0 V 80 64 H 5.3333332 10.666666 V 58.666667 53.333333 H 16 21.333333 V 48 42.666667 h 5.333333 5.333333 V 37.333333 32 h 5.333333 5.333333 v -5.333333 -5.333334 h 5.333334 5.333333 V 16 10.666667 h 5.333333 5.333333 V 5.3333333 0 h 10.666667 10.666666 v 5.3333333 5.3333337 h 5.333333 5.333333 V 21.333333 32 h 5.333333 5.33333 V 42.666667 53.333333 H 112 117.33333 V 74.666667 96 H 112 106.66666 v 5.33333 5.33334 h -5.33333 -5.333333 V 112 117.33333 H 90.666664 85.333331 V 122.66667 128 H 58.666665 31.999999 Z"
           id="path2110" />
        <path
           style="fill:#a3a3a3;fill-opacity:1;stroke-width:1.33333"
           d="m 31.999999,122.66667 v -5.33334 H 26.666666 21.333333 V 112 106.66667 H 16 10.666666 V 101.33333 96 H 5.3333332 0 V 80 64 H 5.3333332 10.666666 V 58.666667 53.333333 H 16 21.333333 V 48 42.666667 h 5.333333 5.333333 V 37.333333 32 h 5.333333 5.333333 v -5.333333 -5.333334 h 5.333334 5.333333 V 16 10.666667 h 5.333333 5.333333 V 5.3333333 0 h 10.666667 10.666666 v 5.3333333 5.3333337 h 5.333333 5.333333 V 21.333333 32 h 5.333333 5.33333 V 42.666667 53.333333 H 112 117.33333 V 74.666667 96 H 112 106.66666 v 5.33333 5.33334 h -5.33333 -5.333333 V 112 117.33333 H 90.666664 85.333331 V 122.66667 128 H 58.666665 31.999999 Z"
           id="path2108" />
        <path
           style="fill:#8c8c8c;fill-opacity:1;stroke-width:1.33333"
           d="m 31.999999,122.66667 v -5.33334 H 26.666666 21.333333 V 112 106.66667 H 16 10.666666 V 101.33333 96 H 5.3333332 0 V 80 64 H 5.3333332 10.666666 V 58.666667 53.333333 H 16 21.333333 V 48 42.666667 h 5.333333 5.333333 V 37.333333 32 h 5.333333 5.333333 v -5.333333 -5.333334 h 5.333334 5.333333 V 16 10.666667 h 5.333333 5.333333 V 5.3333333 0 h 10.666667 10.666666 v 5.3333333 5.3333337 h 5.333333 5.333333 V 21.333333 32 h 5.333333 5.33333 V 42.666667 53.333333 H 112 117.33333 V 74.666667 96 H 112 106.66666 v 5.33333 5.33334 h -5.33333 -5.333333 V 112 117.33333 H 90.666664 85.333331 V 122.66667 128 H 58.666665 31.999999 Z"
           id="path2106" />
        <path
           style="fill:#767676;fill-opacity:1;stroke-width:1.33333"
           d="m 31.999999,122.66667 v -5.33334 H 26.666666 21.333333 V 112 106.66667 H 16 10.666666 V 101.33333 96 H 5.3333332 0 V 80 64 H 5.3333332 10.666666 V 58.666667 53.333333 H 16 21.333333 V 48 42.666667 h 5.333333 5.333333 V 37.333333 32 h 5.333333 5.333333 v -5.333333 -5.333334 h 5.333334 5.333333 V 16 10.666667 h 5.333333 5.333333 V 5.3333333 0 h 10.666667 10.666666 v 5.3333333 5.3333337 h 5.333333 5.333333 V 21.333333 32 h 5.333333 5.33333 V 42.666667 53.333333 H 112 117.33333 V 74.666667 96 H 112 106.66666 v 5.33333 5.33334 h -5.33333 -5.333333 V 112 117.33333 H 90.666664 85.333331 V 122.66667 128 H 58.666665 31.999999 Z M 42.666665,48 v -5.333333 h 5.333334 5.333333 V 37.333333 32 h 5.333333 5.333333 v 5.333333 5.333334 h 5.333333 5.333334 V 37.333333 32 h -5.333334 -5.333333 v -5.333333 -5.333334 h 5.333333 5.333334 V 16 10.666667 H 69.333331 63.999998 V 16 21.333333 H 58.666665 53.333332 V 26.666667 32 h -5.333333 -5.333334 v 5.333333 5.333334 H 37.333332 31.999999 V 48 53.333333 h 5.333333 5.333333 z"
           id="path2104" />
        <path
           style="fill:#606060;fill-opacity:1;stroke-width:1.33333"
           d="m 31.999999,122.66667 v -5.33334 H 26.666666 21.333333 V 112 106.66667 H 16 10.666666 V 101.33333 96 H 5.3333332 0 V 80 64 H 5.3333332 10.666666 V 58.666667 53.333333 H 16 21.333333 V 48 42.666667 h 5.333333 5.333333 V 37.333333 32 h 5.333333 5.333333 v -5.333333 -5.333334 h 5.333334 5.333333 V 16 10.666667 h 5.333333 5.333333 V 5.3333333 0 h 10.666667 10.666666 v 5.3333333 5.3333337 h 5.333333 5.333333 V 21.333333 32 h 5.333333 5.33333 V 42.666667 53.333333 H 112 117.33333 V 74.666667 96 H 112 106.66666 v 5.33333 5.33334 h -5.33333 -5.333333 V 112 117.33333 H 90.666664 85.333331 V 122.66667 128 H 58.666665 31.999999 Z M 21.333333,69.333333 V 64 H 16 10.666666 v 5.333333 5.333334 H 16 21.333333 Z M 74.666665,48 v -5.333333 h 5.333333 5.333333 V 37.333333 32 H 79.999998 74.666665 V 21.333333 10.666667 H 69.333331 63.999998 V 16 21.333333 H 58.666665 53.333332 V 26.666667 32 h -5.333333 -5.333334 v 5.333333 5.333334 H 37.333332 31.999999 V 48 53.333333 h 21.333333 21.333333 z"
           id="path2102" />
        <path
           style="fill:#494949;fill-opacity:1;stroke-width:1.33333"
           d="m 31.999999,122.66667 v -5.33334 H 26.666666 21.333333 V 112 106.66667 H 16 10.666666 V 101.33333 96 H 5.3333332 0 V 80 64 H 5.3333332 10.666666 V 58.666667 53.333333 H 16 21.333333 V 58.666667 64 h 5.333333 5.333333 v -5.333333 -5.333334 h 5.333333 5.333333 V 58.666667 64 h 16 16 v 5.333333 5.333334 H 85.333331 95.999997 V 69.333333 64 H 90.666664 85.333331 V 42.666667 21.333333 H 79.999998 74.666665 V 10.666667 0 h 5.333333 5.333333 v 5.3333333 5.3333337 h 5.333333 5.333333 V 21.333333 32 h 5.333333 5.33333 V 42.666667 53.333333 H 112 117.33333 V 74.666667 96 H 112 106.66666 v 5.33333 5.33334 h -5.33333 -5.333333 V 112 117.33333 H 90.666664 85.333331 V 122.66667 128 H 58.666665 31.999999 Z m 0,-21.33334 V 96 h -5.333333 -5.333333 v 5.33333 5.33334 h 5.333333 5.333333 z M 21.333333,74.666667 V 64 H 16 10.666666 V 74.666667 85.333333 H 16 21.333333 Z m 21.333332,-48 v -5.333334 h 5.333334 5.333333 V 26.666667 32 h -5.333333 -5.333334 z"
           id="path2100" />
        <path
           style="fill:#333333;fill-opacity:1;stroke-width:1.33333"
           d="m 31.999999,122.66667 v -5.33334 H 26.666666 21.333333 V 112 106.66667 H 16 10.666666 V 101.33333 96 H 5.3333332 0 V 90.666667 85.333333 H 5.3333332 10.666666 V 90.666667 96 H 16 21.333333 v 5.33333 5.33334 h 5.333333 5.333333 V 112 117.33333 H 53.333332 74.666665 V 112 106.66667 h 5.333333 5.333333 V 96 85.333333 H 74.666665 63.999998 V 90.666667 96 H 53.333332 42.666665 V 80 64 h 10.666667 10.666666 v 5.333333 5.333334 H 85.333331 106.66666 V 64 53.333333 H 112 117.33333 V 64 74.666667 H 112 106.66666 V 80 85.333333 H 112 117.33333 V 90.666667 96 H 112 106.66666 v 5.33333 5.33334 h -5.33333 -5.333333 V 112 117.33333 H 90.666664 85.333331 V 122.66667 128 H 58.666665 31.999999 Z M 85.333331,42.666667 V 32 h 10.666666 10.666663 v 5.333333 5.333334 h -5.33333 -5.333333 V 48 53.333333 h -5.333333 -5.333333 z"
           id="path2098" />
      </g>
    </g>
    <path
       id="rect1661"
       style="fill:#404040;stroke-width:1.14989;fill-opacity:1"
       d="M 245.66992,18.898438 V 132.2832 h 151.17969 v 37.79492 H 245.66992 v 37.79493 H 434.64648 V 94.488281 H 283.46484 V 56.693359 H 434.64648 V 18.898438 Z"
       transform="scale(0.26458333)" />
    <path
       id="rect2165"
       style="fill:#404040;stroke-width:0.718382;fill-opacity:1"
       d="M 472.44141,18.898438 V 207.87305 H 661.41797 V 170.07812 H 510.23633 V 18.898438 Z"
       transform="scale(0.26458333)" />
    <path
       id="rect2165-0"
       style="fill:#404040;stroke-width:0.718382;fill-opacity:1"
       d="M 907.08594,18.898438 V 207.87305 H 1096.0625 V 94.488281 h -75.5898 V 132.2832 h 37.7949 v 37.79492 H 944.88086 V 56.693359 H 1096.0625 V 18.898438 Z"
       transform="scale(0.26458333)" />
    <path
       id="rect2391"
       style="fill:#404040;stroke-width:0.369073;fill-opacity:1"
       d="M 680.31445,18.896484 V 207.87305 h 37.79493 V 132.2832 h 113.38671 v 75.58985 h 37.79493 V 18.896484 Z m 37.79493,37.794922 H 831.49609 V 94.488281 H 718.10938 Z"
       transform="scale(0.26458333)" />
  </g>
</svg>
