<?xml version="1.0" encoding="UTF-8" standalone="no"?>
<!-- Created with Inkscape (http://www.inkscape.org/) -->

<svg
   width="289.99988mm"
   height="60mm"
   viewBox="0 0 289.99988 60"
   version="1.1"
   id="svg5"
   xmlns="http://www.w3.org/2000/svg"
   xmlns:svg="http://www.w3.org/2000/svg">
  <defs
     id="defs2" />
  <g
     id="layer1">
    <g
       id="g1802"
       transform="matrix(0.46875,0,0,0.46875,76.088967,101.13709)">
      <g
         id="g2096"
         transform="translate(-154.26158,-171.86229)">
        <g
           id="g9519"
           transform="matrix(0.56444444,0,0,0.56444444,48.996467,60.228505)">
          <g
             id="x494949_r73_g73_b73_a1.0"
             transform="matrix(0.85898354,0,0,0.85898354,-101.08704,-184.47403)">
            <path
               d="M 66,242 V 198 H 22 v -22 h 22 v -44 h 22 v -22 h 22 v 25 63 h 44 v -22 h 44 v 44 h -22 v 22 z"
               fill="#494949"
               fill-opacity="1"
               id="x494949_r73_g73_b73_a1.0_shape1" />
            <path
               d="m 154,0 h 22 v 22 h 22 V 66 H 176 V 55 44 h -22 z"
               fill="#494949"
               fill-opacity="1"
               id="x494949_r73_g73_b73_a1.0_shape2" />
            <path
               d="m 198,132 h -22 v -22 h 22 V 88 h 22 v 66 h -22 z"
               fill="#494949"
               fill-opacity="1"
               id="x494949_r73_g73_b73_a1.0_shape3" />
            <path
               d="m 0,132 h 22 v 44 H 0 Z"
               fill="#494949"
               fill-opacity="1"
               id="x494949_r73_g73_b73_a1.0_shape4" />
            <path
               d="m 88,44 h 22 V 66 H 88 Z"
               fill="#494949"
               fill-opacity="1"
               id="x494949_r73_g73_b73_a1.0_shape5" />
            <path
               d="M 44,132 H 22 v -22 h 22 z"
               fill="#494949"
               fill-opacity="1"
               id="x494949_r73_g73_b73_a1.0_shape6" />
            <path
               d="m 132,154 v -22 h 22 v 22 z"
               fill="#494949"
               fill-opacity="1"
               id="x494949_r73_g73_b73_a1.0_shape7" />
            <path
               d="m 242,154 v 22 h -22 v -22 z"
               fill="#494949"
               fill-opacity="1"
               id="x494949_r73_g73_b73_a1.0_shape8" />
          </g>
          <g
             id="x333333_r51_g51_b51_a1.0"
             transform="matrix(0.85898354,0,0,0.85898354,-101.08704,-184.47403)">
            <path
               d="m 176,176 h -44 v 22 H 88 v -66 h 44 v 22 h 88 v 22 h 22 v 22 h -22 v 22 h -22 v 10 12 h -22 v 22 H 66 v -22 h 88 v -22 h 22 z"
               fill="#333333"
               fill-opacity="1"
               id="x333333_r51_g51_b51_a1.0_shape1" />
            <path
               d="M 198,110 H 176 V 66 h 8 36 v 11 11 h -22 v 1 z"
               fill="#333333"
               fill-opacity="1"
               id="x333333_r51_g51_b51_a1.0_shape2" />
            <path
               d="m 220,110 h 22 v 44 h -22 z"
               fill="#333333"
               fill-opacity="1"
               id="x333333_r51_g51_b51_a1.0_shape3" />
            <path
               d="m 0,176 h 22 v 22 H 7 0 v -5 z"
               fill="#333333"
               fill-opacity="1"
               id="x333333_r51_g51_b51_a1.0_shape4" />
            <path
               d="m 44,198 v 22 H 22 v -22 z"
               fill="#333333"
               fill-opacity="1"
               id="x333333_r51_g51_b51_a1.0_shape5" />
            <path
               d="m 66,220 v 22 H 44 v -22 z"
               fill="#333333"
               fill-opacity="1"
               id="x333333_r51_g51_b51_a1.0_shape6" />
          </g>
          <g
             id="x606060_r96_g96_b96_a1.0"
             transform="matrix(0.85898354,0,0,0.85898354,-101.08704,-184.47403)">
            <path
               d="m 88,132 v -22 h 66 V 88 h 22 v 6 38 h 22 v 22 h -38 -6 v -22 z"
               fill="#606060"
               fill-opacity="1"
               id="x606060_r96_g96_b96_a1.0_shape1" />
            <path
               d="M 66,132 H 44 V 88 h 22 z"
               fill="#606060"
               fill-opacity="1"
               id="x606060_r96_g96_b96_a1.0_shape2" />
            <path
               d="m 132,0 h 22 v 22 h -22 z"
               fill="#606060"
               fill-opacity="1"
               id="x606060_r96_g96_b96_a1.0_shape3" />
            <path
               d="M 110,44 V 22 h 22 v 22 z"
               fill="#606060"
               fill-opacity="1"
               id="x606060_r96_g96_b96_a1.0_shape4" />
            <path
               d="M 154,66 V 44 h 22 v 22 z"
               fill="#606060"
               fill-opacity="1"
               id="x606060_r96_g96_b96_a1.0_shape5" />
            <path
               d="M 88,88 H 66 V 66 h 22 z"
               fill="#606060"
               fill-opacity="1"
               id="x606060_r96_g96_b96_a1.0_shape6" />
            <path
               d="m 22,154 h 22 v 22 H 22 Z"
               fill="#606060"
               fill-opacity="1"
               id="x606060_r96_g96_b96_a1.0_shape7" />
            <path
               d="m 44,220 v -22 h 22 v 22 z"
               fill="#606060"
               fill-opacity="1"
               id="x606060_r96_g96_b96_a1.0_shape8" />
          </g>
          <g
             id="x767676_r118_g118_b118_a1.0">
            <path
               d="m 12.298792,-127.78112 v 18.89764 h 2.57695 16.32069 v 18.89764 h -56.69292 v -18.89764 h 18.8976399 v -18.89764 z"
               fill="#767676"
               fill-opacity="1"
               id="x767676_r118_g118_b118_a1.0_shape1"
               style="stroke-width:0.858984" />
            <path
               d="m 31.196432,-146.67875 v 18.89763 h -18.89764 v -18.89763 z"
               fill="#767676"
               fill-opacity="1"
               id="x767676_r118_g118_b118_a1.0_shape2"
               style="stroke-width:0.858984" />
            <path
               d="m 31.196432,-108.88348 v -18.89764 h 18.89763 v 18.89764 z"
               fill="#767676"
               fill-opacity="1"
               id="x767676_r118_g118_b118_a1.0_shape3"
               style="stroke-width:0.858984" />
            <path
               d="m -63.291758,-52.19056 h -18.89764 V -71.0882 h 18.89764 z"
               fill="#767676"
               fill-opacity="1"
               id="x767676_r118_g118_b118_a1.0_shape4"
               style="stroke-width:0.858984" />
          </g>
          <g
             id="x8c8c8c_r140_g140_b140_a1.0"
             transform="matrix(0.85898354,0,0,0.85898354,-101.08704,-184.47403)">
            <path
               d="M 154,44 H 132 V 22 h 22 z"
               fill="#8c8c8c"
               fill-opacity="1"
               id="x8c8c8c_r140_g140_b140_a1.0_shape1" />
            <path
               d="M 132,66 H 110 V 44 h 22 z"
               fill="#8c8c8c"
               fill-opacity="1"
               id="x8c8c8c_r140_g140_b140_a1.0_shape2" />
            <path
               d="M 88,88 V 66 h 22 v 22 z"
               fill="#8c8c8c"
               fill-opacity="1"
               id="x8c8c8c_r140_g140_b140_a1.0_shape3" />
            <path
               d="M 132,88 V 66 h 22 v 22 z"
               fill="#8c8c8c"
               fill-opacity="1"
               id="x8c8c8c_r140_g140_b140_a1.0_shape4" />
            <path
               d="M 88,110 H 66 V 88 h 22 z"
               fill="#8c8c8c"
               fill-opacity="1"
               id="x8c8c8c_r140_g140_b140_a1.0_shape5" />
          </g>
        </g>
      </g>
    </g>
    <path
       id="rect1661"
       style="fill:#666666;stroke-width:1.14989"
       d="M 245.66992,18.898438 V 132.2832 h 151.17969 v 37.79492 H 245.66992 v 37.79493 H 434.64648 V 94.488281 H 283.46484 V 56.693359 H 434.64648 V 18.898438 Z"
       transform="scale(0.26458333)" />
    <path
       id="rect2165"
       style="fill:#666666;stroke-width:0.718382"
       d="M 472.44141,18.898438 V 207.87305 H 661.41797 V 170.07812 H 510.23633 V 18.898438 Z"
       transform="scale(0.26458333)" />
    <path
       id="rect2165-0"
       style="fill:#666666;stroke-width:0.718382"
       d="M 907.08594,18.898438 V 207.87305 H 1096.0625 V 94.488281 h -75.5898 V 132.2832 h 37.7949 v 37.79492 H 944.88086 V 56.693359 H 1096.0625 V 18.898438 Z"
       transform="scale(0.26458333)" />
    <path
       id="rect2391"
       style="fill:#666666;stroke-width:0.369073"
       d="M 680.31445,18.896484 V 207.87305 h 37.79493 V 132.2832 h 113.38671 v 75.58985 h 37.79493 V 18.896484 Z m 37.79493,37.794922 H 831.49609 V 94.488281 H 718.10938 Z"
       transform="scale(0.26458333)" />
  </g>
</svg>
